<svg xmlns="http://www.w3.org/2000/svg" width="130" height="86" fill="none" viewBox="0 0 130 86">
    <g clip-path="url(#clip0)">
        <path fill="url(#paint0_linear)" d="M73.16 48.921v.475c-3.105-1.74-6.767-2.688-10.668-2.372-9.075.712-16.32 8.063-16.956 17.074-.717 10.75 7.801 19.682 18.469 19.682 9.95 0 17.991-7.746 18.469-17.469v-17.39c0-2.529-2.07-4.663-4.697-4.663-2.468 0-4.618 2.134-4.618 4.663z"/>
        <path fill="#fff" d="M78.015 47.973l.558.948c0 .08.08.08.08.08l.955.553c.159.079.159.316 0 .395l-.956.553c-.08 0-.08.08-.08.08l-.557.948c-.08.158-.318.158-.398 0l-.557-.949c0-.079-.08-.079-.08-.079l-.955-.553c-.159-.08-.159-.316 0-.395l.956-.554c.08 0 .08-.079.08-.079l.556-.948c.08-.237.319-.237.398 0z"/>
        <path fill="#007493" d="M57.238 59.907c1.011 0 1.83-.813 1.83-1.817 0-1.005-.819-1.819-1.83-1.819-1.011 0-1.831.814-1.831 1.819 0 1.004.82 1.817 1.83 1.817zM69.657 59.513c1.011 0 1.83-.814 1.83-1.818s-.819-1.818-1.83-1.818c-1.011 0-1.831.814-1.831 1.818s.82 1.818 1.83 1.818z"/>
        <path fill="#0093B5" d="M66.87 62.28c.319 0 .478.236.478.553-.318 1.58-1.83 2.766-3.742 2.766-1.91 0-3.423-1.186-3.741-2.766-.08-.237.16-.554.478-.554h6.527z"/>
        <path fill="#43E7EF" d="M118.059 58.17h-.08c-1.672 0-3.025-1.264-3.105-2.924C113.282 29.319 91.549 8.689 65.04 8.689c-26.51 0-48.243 20.63-49.755 46.557-.08 1.66-1.433 2.924-3.105 2.924h-.08c-1.751 0-3.264-1.502-3.104-3.24 1.671-29.247 26.19-52.565 56.123-52.565 29.933 0 54.452 23.318 56.124 52.565 0 1.739-1.433 3.24-3.184 3.24z"/>
        <path fill="#07D5E0" d="M111.691 58.17h-.08c-1.672 0-3.025-1.265-3.105-2.925-1.512-22.448-20.38-40.233-43.386-40.233-23.007 0-41.874 17.785-43.466 40.154-.08 1.66-1.433 2.925-3.105 2.925h-.08c-1.83 0-3.263-1.502-3.104-3.24C17.036 29.08 38.69 8.608 65.12 8.608c26.35 0 48.003 20.473 49.755 46.241 0 1.818-1.433 3.32-3.184 3.32z"/>
        <path fill="#00BFD3" d="M105.242 58.17h-.079c-1.593 0-3.026-1.265-3.105-2.846-1.433-18.97-17.514-33.989-37.018-33.989s-35.505 15.019-37.018 33.99c-.159 1.58-1.512 2.845-3.104 2.845h-.08c-1.831 0-3.264-1.581-3.105-3.4 1.752-22.21 20.46-39.758 43.307-39.758 22.848 0 41.635 17.547 43.307 39.759.159 1.818-1.274 3.399-3.105 3.399z"/>
        <path fill="#A6EEF4" d="M28.5 49.002c-1.593 0-3.105.474-4.379 1.265-.398.237-.955.237-1.433 0-1.273-.79-2.786-1.265-4.378-1.265s-3.025.474-4.299 1.186c-.398.237-.876.237-1.274 0-1.194-.633-2.547-.949-3.9-.949C3.98 49.24 0 53.508 0 58.724c0 5.217 3.98 9.407 8.836 9.407 1.593 0 3.026-.475 4.3-1.186.397-.237.875-.237 1.273 0 1.194.632 2.547.949 3.9.949 1.593 0 3.106-.475 4.38-1.265.397-.237.955-.237 1.432 0 1.274.79 2.787 1.264 4.379 1.264 4.856 0 8.836-4.189 8.836-9.406 0-5.296-3.98-9.485-8.836-9.485zM121.164 49.002c-1.592 0-3.105.474-4.378 1.265-.398.237-.956.237-1.433 0-1.274-.79-2.787-1.265-4.379-1.265-1.592 0-3.025.474-4.299 1.186-.398.237-.875.237-1.273 0-1.194-.633-2.548-.949-3.901-.949-4.856 0-8.837 4.19-8.837 9.406 0 5.217 3.98 9.407 8.837 9.407 1.592 0 3.025-.475 4.299-1.186.398-.237.875-.237 1.273 0 1.195.632 2.548.948 3.901.948 1.592 0 3.105-.474 4.379-1.264.398-.237.955-.237 1.433 0 1.273.79 2.786 1.264 4.378 1.264 4.856 0 8.837-4.189 8.837-9.406 0-5.217-3.981-9.406-8.837-9.406z"/>
    </g>
    <defs>
        <linearGradient id="paint0_linear" x1="64.018" x2="64.018" y1="83.736" y2="44.279" gradientUnits="userSpaceOnUse">
            <stop offset="0" stop-color="#36C8F5"/>
            <stop offset="1" stop-color="#13E2DD"/>
        </linearGradient>
        <clipPath id="clip0">
            <path fill="#fff" d="M0 0H130V86H0z"/>
        </clipPath>
    </defs>
</svg>
