<svg xmlns="http://www.w3.org/2000/svg" width="55" height="55" fill="none" viewBox="0 0 55 55">
    <path fill="url(#paint0_linear)" d="M37.878 14.369v.543c-3.62-2.038-7.855-3.058-12.363-2.718-10.383.815-18.784 9.31-19.467 19.708C5.228 44.27 15.064 54.6 27.358 54.6c11.476 0 20.766-8.97 21.312-20.252v-19.98c0-2.99-2.39-5.368-5.396-5.368-2.937 0-5.396 2.379-5.396 5.369z"/>
    <path fill="#fff" d="M43.48 13.213l.615 1.156c0 .068.068.068.136.136l1.161.611c.205.136.205.408 0 .476l-1.16.612c-.069 0-.069.068-.137.136l-.615 1.155c-.137.204-.41.204-.478 0l-.615-1.155c0-.068-.068-.068-.137-.136l-1.16-.612c-.206-.136-.206-.408 0-.476l1.16-.68c.069 0 .069-.067.137-.135l.615-1.155c.068-.136.341-.136.478.067z"/>
    <path fill="#007493" d="M19.573 27.075c1.169 0 2.117-.944 2.117-2.107 0-1.163-.948-2.107-2.117-2.107-1.17 0-2.118.944-2.118 2.107 0 1.163.948 2.107 2.118 2.107zM33.848 26.6c1.17 0 2.117-.943 2.117-2.107 0-1.163-.948-2.106-2.117-2.106-1.17 0-2.117.943-2.117 2.106 0 1.164.947 2.107 2.117 2.107z"/>
    <path fill="#0093B5" d="M30.637 29.797c.341 0 .546.272.478.611-.341 1.835-2.117 3.262-4.303 3.262s-3.962-1.427-4.303-3.262c-.069-.34.205-.611.478-.611h7.65z"/>
    <defs>
        <linearGradient id="paint0_linear" x1="27.329" x2="27.329" y1="54.602" y2="9" gradientUnits="userSpaceOnUse">
            <stop offset="0" stop-color="#36C8F5"/>
            <stop offset="1" stop-color="#13E2DD"/>
        </linearGradient>
    </defs>
</svg>
