<svg xmlns="http://www.w3.org/2000/svg" width="24" height="24" fill="none" viewBox="0 0 24 24">
    <path stroke="url(#paint0_linear)" stroke-linecap="round" stroke-linejoin="round" stroke-width="1.5" d="M22 11.08V12c-.001 2.156-.7 4.255-1.99 5.982-1.292 1.727-3.107 2.99-5.175 3.602-2.068.611-4.278.538-6.3-.21-2.023-.747-3.75-2.128-4.924-3.937-1.174-1.809-1.731-3.949-1.59-6.1.143-2.152.976-4.2 2.377-5.84C5.8 3.857 7.693 2.715 9.796 2.24c2.104-.475 4.304-.258 6.274.62"/>
    <path stroke="url(#paint1_linear)" stroke-linecap="round" stroke-linejoin="round" stroke-width="1.5" d="M22 4L12 14.01l-3-3"/>
    <defs>
        <linearGradient id="paint0_linear" x1="3.2" x2="20.337" y1="11.494" y2="12.065" gradientUnits="userSpaceOnUse">
            <stop stop-color="#36C8F5"/>
            <stop offset="1" stop-color="#13E2DD"/>
        </linearGradient>
        <linearGradient id="paint1_linear" x1="9.78" x2="20.91" y1="8.755" y2="9.236" gradientUnits="userSpaceOnUse">
            <stop stop-color="#36C8F5"/>
            <stop offset="1" stop-color="#13E2DD"/>
        </linearGradient>
    </defs>
</svg>
