<svg xmlns="http://www.w3.org/2000/svg" width="24" height="24" fill="none" viewBox="0 0 24 24">
    <path fill="#3D3D3D" d="M12 2c-1.313 0-2.614.259-3.827.761-1.213.503-2.315 1.24-3.244 2.168C3.054 6.804 2 9.348 2 12c-.009 2.31.79 4.549 2.26 6.33l-2 2c-.139.14-.233.32-.27.513-.038.194-.017.395.06.577.083.18.218.331.387.434.169.104.365.154.563.146h9c2.652 0 5.196-1.054 7.071-2.929C20.946 17.196 22 14.652 22 12s-1.054-5.196-2.929-7.071C17.196 3.054 14.652 2 12 2zm0 18H5.41l.93-.93c.186-.187.29-.44.29-.705 0-.264-.104-.518-.29-.705-1.31-1.308-2.125-3.03-2.307-4.871-.183-1.842.279-3.69 1.306-5.23C6.366 6.02 7.896 4.885 9.666 4.347c1.771-.538 3.674-.446 5.384.26 1.71.708 3.123 1.986 3.996 3.618.874 1.632 1.155 3.515.795 5.331-.36 1.816-1.338 3.45-2.768 4.625C15.643 19.355 13.851 20 12 20z"/>
</svg>
