<svg xmlns="http://www.w3.org/2000/svg" width="20" height="20" fill="none" viewBox="0 0 20 20">
    <path stroke="#C1C1C1" stroke-linecap="round" stroke-linejoin="round" stroke-width="1.5" d="M9.166 3.332H3.333c-.442 0-.866.176-1.178.488-.313.313-.488.737-.488 1.179v11.666c0 .442.175.866.488 1.179.312.312.736.488 1.178.488H15c.442 0 .866-.176 1.178-.488.313-.313.488-.737.488-1.179v-5.833"/>
    <path stroke="#C1C1C1" stroke-linecap="round" stroke-linejoin="round" stroke-width="1.5" d="M15.416 2.084c.332-.331.782-.518 1.25-.518.47 0 .919.187 1.25.518.332.332.518.781.518 1.25s-.186.919-.518 1.25L10 12.501l-3.333.833.833-3.333 7.916-7.917z"/>
</svg>
