<svg xmlns="http://www.w3.org/2000/svg" width="32" height="30" fill="none" viewBox="0 0 32 30">
    <g clip-path="url(#clip0)">
        <path fill="url(#paint0_linear)" d="M27.851 22.264c1.43-2.527 2.146-5.483 1.908-8.63C29.186 6.342 23.225.478 15.929 0 7.248-.572 0 6.34 0 14.922c0 7.962 6.295 14.493 14.212 14.875h14.02c2.099 0 3.768-1.669 3.768-3.767 0-2.097-1.67-3.766-3.767-3.766h-.382zM7.535 14.922c0-4.052 3.29-7.39 7.392-7.39 4.054 0 7.392 3.29 7.392 7.39s-3.29 7.39-7.392 7.39c-4.101-.048-7.392-3.338-7.392-7.39z"/>
        <path fill="#fff" d="M28.614 24.696l.43.81c0 .048.047.048.095.096l.81.429c.144.095.144.286 0 .333l-.858.43c-.048 0-.048.047-.095.095l-.382.762c-.095.144-.286.144-.334 0l-.429-.81c0-.048-.047-.048-.095-.095l-.811-.43c-.143-.095-.143-.285 0-.333l.81-.43c.049 0 .049-.047.096-.095l.43-.81c.047-.048.238-.048.333.048z"/>
    </g>
    <defs>
        <linearGradient id="paint0_linear" x1="0" x2="32.002" y1="14.901" y2="14.901" gradientUnits="userSpaceOnUse">
            <stop offset="0" stop-color="#36C8F5"/>
            <stop offset="1" stop-color="#13E2DD"/>
        </linearGradient>
        <clipPath id="clip0">
            <path fill="#fff" d="M0 0H32V29.797H0z"/>
        </clipPath>
    </defs>
</svg>
