<svg xmlns="http://www.w3.org/2000/svg" width="90" height="90" fill="none" viewBox="0 0 90 90">
    <circle cx="45" cy="45" r="45" fill="#8B8B8B"/>
    <path fill="#fff" d="M45 35.833c-.487 0-.953.193-1.297.537-.344.344-.537.81-.537 1.296v7.333c0 .487.193.953.537 1.297.344.343.81.537 1.296.537.487 0 .953-.194 1.297-.537.343-.344.537-.81.537-1.297v-7.333c0-.486-.194-.952-.537-1.296-.344-.344-.81-.537-1.297-.537zm1.686 15.803c-.04-.117-.096-.228-.165-.33l-.22-.275c-.258-.254-.585-.427-.94-.495-.356-.069-.724-.03-1.058.11-.222.093-.427.223-.605.385-.17.171-.305.375-.396.598-.091.223-.137.462-.136.704.003.24.053.476.147.696.082.228.213.434.384.606.172.17.378.302.606.384.22.097.456.147.696.147.24 0 .478-.05.697-.147.227-.082.434-.213.605-.384.171-.171.303-.378.385-.606.094-.22.144-.457.147-.696.009-.122.009-.245 0-.367-.032-.117-.081-.228-.147-.33zm-1.687-24.97c-3.626 0-7.17 1.075-10.185 3.09-3.015 2.014-5.365 4.877-6.752 8.227-1.388 3.35-1.751 7.037-1.044 10.593.708 3.556 2.454 6.823 5.018 9.387 2.564 2.564 5.83 4.31 9.387 5.017 3.556.708 7.242.345 10.592-1.043 3.35-1.387 6.213-3.737 8.228-6.752 2.014-3.015 3.09-6.56 3.09-10.186 0-2.407-.474-4.791-1.396-7.016-.921-2.224-2.272-4.245-3.974-5.947-1.702-1.703-3.724-3.053-5.948-3.974-2.224-.922-4.608-1.396-7.016-1.396zm0 33c-2.9 0-5.736-.86-8.148-2.472-2.412-1.611-4.292-3.902-5.402-6.582-1.11-2.68-1.4-5.629-.835-8.474.566-2.845 1.963-5.458 4.015-7.51 2.05-2.05 4.664-3.448 7.509-4.014 2.845-.565 5.794-.275 8.474.835 2.68 1.11 4.97 2.99 6.582 5.402s2.472 5.248 2.472 8.148c0 3.89-1.545 7.62-4.296 10.371-2.75 2.75-6.48 4.296-10.37 4.296z"/>
</svg>
