<svg xmlns="http://www.w3.org/2000/svg" width="100" height="100" fill="none" viewBox="0 0 100 100">
    <path fill="#fafafa" d="M0 0H100V100H0z"/>
    <g clip-path="url(#clip0)">
        <path fill="url(#paint0_linear)" d="M68.517 61.787c2.236-3.948 3.353-8.567 2.98-13.483-.893-11.398-10.208-20.56-21.609-21.305C36.326 26.105 25 36.906 25 50.315c0 12.44 9.836 22.645 22.206 23.241h21.907c3.279 0 5.887-2.607 5.887-5.884 0-3.278-2.608-5.885-5.887-5.885h-.596zM36.774 50.315c0-6.332 5.141-11.546 11.55-11.546 6.333 0 11.55 5.14 11.55 11.546s-5.142 11.546-11.55 11.546c-6.409-.074-11.55-5.214-11.55-11.546z"/>
        <path fill="#fff" d="M69.71 65.586l.67 1.267c0 .074.075.074.149.149l1.267.67c.223.15.223.447 0 .522l-1.342.67c-.074 0-.074.075-.149.149l-.596 1.192c-.149.223-.447.223-.521 0l-.67-1.266c0-.075-.076-.075-.15-.15l-1.267-.67c-.223-.149-.223-.447 0-.521l1.267-.67c.075 0 .075-.075.15-.15l.67-1.266c.074-.075.372-.075.521.074z"/>
    </g>
    <defs>
        <linearGradient id="paint0_linear" x1="25" x2="75.003" y1="50.282" y2="50.282" gradientUnits="userSpaceOnUse">
            <stop offset="0" stop-color="#36C8F5"/>
            <stop offset="1" stop-color="#13E2DD"/>
        </linearGradient>
        <clipPath id="clip0">
            <path fill="#fff" d="M0 0H50V46.557H0z" transform="translate(25 27)"/>
        </clipPath>
    </defs>
</svg>
