<svg xmlns="http://www.w3.org/2000/svg" width="60" height="60" fill="none" viewBox="0 0 60 60">
    <g filter="url(#filter0_d)">
        <circle cx="30" cy="30" r="23" fill="#3D3D3D"/>
        <path stroke="#fff" stroke-linecap="round" stroke-linejoin="round" stroke-width="2" d="M37 31c.552 0 1-.448 1-1s-.448-1-1-1-1 .448-1 1 .448 1 1 1zM30 31c.552 0 1-.448 1-1s-.448-1-1-1-1 .448-1 1 .448 1 1 1zM23 31c.552 0 1-.448 1-1s-.448-1-1-1-1 .448-1 1 .448 1 1 1z"/>
    </g>
    <defs>
        <filter id="filter0_d" width="60" height="60" x="0" y="0" color-interpolation-filters="sRGB" filterUnits="userSpaceOnUse">
            <feFlood flood-opacity="0" result="BackgroundImageFix"/>
            <feColorMatrix in="SourceAlpha" values="0 0 0 0 0 0 0 0 0 0 0 0 0 0 0 0 0 0 127 0"/>
            <feOffset/>
            <feGaussianBlur stdDeviation="3.5"/>
            <feColorMatrix values="0 0 0 0 0.11485 0 0 0 0 0.09875 0 0 0 0 0.3 0 0 0 0.13 0"/>
            <feBlend in2="BackgroundImageFix" result="effect1_dropShadow"/>
            <feBlend in="SourceGraphic" in2="effect1_dropShadow" result="shape"/>
        </filter>
    </defs>
</svg>
