<svg xmlns="http://www.w3.org/2000/svg" width="140" height="140" fill="none" viewBox="0 0 140 140">
    <path fill="#DFDFDF" d="M110.832 64.166H29.165c-1.547 0-3.03.615-4.124 1.709-1.094 1.094-1.709 2.577-1.709 4.124 0 1.547.615 3.031 1.709 4.125 1.093 1.094 2.577 1.709 4.124 1.709h81.667c1.547 0 3.031-.615 4.125-1.709 1.094-1.094 1.708-2.578 1.708-4.125 0-1.547-.614-3.03-1.708-4.124-1.094-1.094-2.578-1.709-4.125-1.709z"/>
    <path fill="#DFDFDF" d="M75.832 110.834V29.167c0-1.547-.615-3.03-1.708-4.125-1.094-1.093-2.578-1.708-4.125-1.708-1.547 0-3.031.615-4.125 1.709-1.094 1.094-1.709 2.577-1.709 4.124v81.667c0 1.547.615 3.031 1.709 4.125 1.094 1.094 2.578 1.708 4.125 1.708 1.547 0 3.03-.614 4.125-1.708 1.093-1.094 1.708-2.578 1.708-4.125z"/>
</svg>
