<svg xmlns="http://www.w3.org/2000/svg" width="38" height="38" fill="none" viewBox="0 0 38 38">
    <path fill="#A5A5A5" d="M30.082 17.416H7.915c-.42 0-.822.167-1.12.464-.296.297-.463.7-.463 1.12 0 .42.167.822.464 1.119.297.297.7.464 1.12.464h22.166c.42 0 .823-.167 1.12-.464.296-.297.463-.7.463-1.12 0-.42-.166-.822-.463-1.12-.297-.296-.7-.463-1.12-.463z"/>
    <path fill="#A5A5A5" d="M20.582 30.084V7.917c0-.42-.167-.822-.464-1.12-.297-.296-.7-.463-1.12-.463-.42 0-.822.167-1.119.464-.297.297-.464.7-.464 1.12v22.166c0 .42.167.823.464 1.12.297.296.7.463 1.12.463.42 0 .822-.167 1.12-.463.296-.297.463-.7.463-1.12z"/>
</svg>
