<svg width="20" height="20" viewBox="0 0 20 20" fill="none" xmlns="http://www.w3.org/2000/svg">
<path d="M9.99989 1.66699C8.90554 1.66699 7.82191 1.88254 6.81086 2.30133C5.79981 2.72012 4.88115 3.33395 4.10733 4.10777C2.54453 5.67057 1.66656 7.79019 1.66656 10.0003C1.65927 11.9246 2.32555 13.7908 3.54989 15.2753L1.88322 16.942C1.76759 17.0592 1.68926 17.208 1.65812 17.3696C1.62697 17.5313 1.64441 17.6986 1.70822 17.8503C1.77744 18.0003 1.88964 18.1263 2.03059 18.2123C2.17155 18.2984 2.33489 18.3406 2.49989 18.3337H9.99989C12.21 18.3337 14.3296 17.4557 15.8924 15.8929C17.4552 14.3301 18.3332 12.2105 18.3332 10.0003C18.3332 7.79019 17.4552 5.67057 15.8924 4.10777C14.3296 2.54497 12.21 1.66699 9.99989 1.66699ZM9.99989 16.667H4.50822L5.28322 15.892C5.43843 15.7359 5.52555 15.5246 5.52555 15.3045C5.52555 15.0843 5.43843 14.8731 5.28322 14.717C4.19204 13.627 3.51253 12.1924 3.36046 10.6577C3.20839 9.12287 3.59317 7.58283 4.44924 6.29993C5.30531 5.01702 6.57971 4.07062 8.05532 3.62197C9.53092 3.17332 11.1164 3.25016 12.5417 3.83942C13.967 4.42868 15.1439 5.49389 15.8719 6.85357C16.5999 8.21325 16.8339 9.78328 16.5342 11.2962C16.2344 12.8091 15.4193 14.1712 14.2278 15.1505C13.0364 16.1299 11.5422 16.6658 9.99989 16.667Z" fill="white"/>
</svg>
