<svg xmlns="http://www.w3.org/2000/svg" width="94" height="94" fill="none" viewBox="0 0 94 94">
    <g filter="url(#filter0_d)">
        <circle cx="47" cy="43" r="32" fill="#3D3D3D"/>
    </g>
    <path fill="#fff" d="M42.763 40.732L43 39.93c.048-.142 0-.284-.094-.425-.095-.095-.284-.142-.425-.095l-.756.236-.804-.236c-.142-.047-.283 0-.425.095-.095.094-.142.283-.095.425l.237.756-.237.803c-.047.142 0 .284.095.426.094.094.283.142.425.094l.756-.236.804.236h.094c.095 0 .236-.047.284-.142.094-.094.142-.283.094-.425l-.189-.709z"/>
    <path fill="#fff" d="M57.839 30.052l-5.435-5.435c-.142-.142-.33-.236-.567-.236-.237 0-.378.094-.52.236l-2.363 2.363-1.04 1.04-9.687 9.687c-.095.095-.19.237-.19.379l-1.7 7.183c-.048.236 0 .52.188.709.142.141.331.236.52.236h.19l7.182-1.701c.142-.048.237-.095.378-.19l13.09-13.09c.237-.425.237-.898-.046-1.181zm-5.01 3.922l-4.395-4.395.52-.52.52-.52 4.395 4.395-1.04 1.04zM43.803 43l-4.537 1.087-.472-.472-.473-.473 1.087-4.537 7.94-7.939 4.394 4.395-7.939 7.94zm11.153-11.152l-4.395-4.395 1.276-1.23 4.395 4.396-1.276 1.229zM38.628 61.06l-1.896-5.496-1.896 5.496h-1.608L30.36 52.6h1.98l1.74 5.688 1.884-5.712h1.584l1.884 5.712 1.74-5.688h1.932l-2.868 8.46h-1.608zm9.011-4.704c-.624 0-1.108.192-1.452.576-.336.376-.504.94-.504 1.692V61h-1.824v-6.432h1.824v1.296c.2-.472.464-.832.792-1.08.328-.248.748-.36 1.26-.336v1.908h-.096zm1.272-4.116h1.92v1.62h-1.92v-1.62zm.048 2.328h1.824V61h-1.824v-6.432zm7.149 6.168c-.416.248-.896.372-1.44.372-.6 0-1.064-.144-1.392-.432-.32-.296-.48-.796-.48-1.5v-3.048h-.768v-1.56h.768v-1.644h1.824v1.644h1.512v1.56H54.62v2.748c0 .208.048.364.144.468.096.104.244.156.444.156.32 0 .62-.076.9-.228v1.464zm7.192-2.772c0 .08-.008.232-.024.456H58.8c.088.408.268.72.54.936.272.216.616.324 1.032.324.304 0 .576-.052.816-.156.24-.104.488-.272.744-.504l1.044.924c-.648.8-1.524 1.2-2.628 1.2-.64 0-1.216-.14-1.728-.42-.504-.28-.904-.672-1.2-1.176-.288-.504-.432-1.08-.432-1.728v-.024c0-.608.136-1.168.408-1.68.272-.512.648-.916 1.128-1.212.488-.304 1.036-.456 1.644-.456.688 0 1.264.16 1.728.48.472.32.824.744 1.056 1.272.232.528.348 1.108.348 1.74v.024zm-1.776-.684c-.056-.416-.204-.748-.444-.996-.232-.248-.536-.372-.912-.372-.368 0-.676.124-.924.372-.24.24-.396.572-.468.996h2.748z"/>
    <defs>
        <filter id="filter0_d" width="94" height="94" x="0" y="0" color-interpolation-filters="sRGB" filterUnits="userSpaceOnUse">
            <feFlood flood-opacity="0" result="BackgroundImageFix"/>
            <feColorMatrix in="SourceAlpha" values="0 0 0 0 0 0 0 0 0 0 0 0 0 0 0 0 0 0 127 0"/>
            <feOffset dy="4"/>
            <feGaussianBlur stdDeviation="7.5"/>
            <feColorMatrix values="0 0 0 0 0.0766667 0 0 0 0 0.0851 0 0 0 0 0.2875 0 0 0 0.2 0"/>
            <feBlend in2="BackgroundImageFix" result="effect1_dropShadow"/>
            <feBlend in="SourceGraphic" in2="effect1_dropShadow" result="shape"/>
        </filter>
    </defs>
</svg>
