<svg width="10" height="10" viewBox="0 0 10 10" fill="none" xmlns="http://www.w3.org/2000/svg">
<path d="M5.82067 5.00108L9.49568 1.33192C9.60552 1.22207 9.66723 1.07309 9.66723 0.917751C9.66723 0.762409 9.60552 0.613429 9.49568 0.503585C9.38583 0.393741 9.23685 0.332031 9.08151 0.332031C8.92617 0.332031 8.77719 0.393741 8.66734 0.503585L4.99817 4.17859L1.32901 0.503585C1.21916 0.393741 1.07018 0.332031 0.914841 0.332031C0.759498 0.332031 0.610518 0.393741 0.500674 0.503585C0.39083 0.613429 0.329121 0.762409 0.329121 0.917751C0.329121 1.07309 0.39083 1.22207 0.500674 1.33192L4.17567 5.00108L0.500674 8.67025C0.445999 8.72448 0.402603 8.789 0.372988 8.86008C0.343372 8.93117 0.328125 9.00741 0.328125 9.08442C0.328125 9.16143 0.343372 9.23767 0.372988 9.30875C0.402603 9.37984 0.445999 9.44436 0.500674 9.49858C0.554902 9.55326 0.61942 9.59666 0.690504 9.62627C0.761589 9.65589 0.837834 9.67113 0.914841 9.67113C0.991848 9.67113 1.06809 9.65589 1.13918 9.62627C1.21026 9.59666 1.27478 9.55326 1.32901 9.49858L4.99817 5.82358L8.66734 9.49858C8.72157 9.55326 8.78609 9.59666 8.85717 9.62627C8.92826 9.65589 9.0045 9.67113 9.08151 9.67113C9.15852 9.67113 9.23476 9.65589 9.30585 9.62627C9.37693 9.59666 9.44145 9.55326 9.49568 9.49858C9.55035 9.44436 9.59375 9.37984 9.62336 9.30875C9.65298 9.23767 9.66822 9.16143 9.66822 9.08442C9.66822 9.00741 9.65298 8.93117 9.62336 8.86008C9.59375 8.789 9.55035 8.72448 9.49568 8.67025L5.82067 5.00108Z" fill="#8B8B8B"/>
</svg>
