<svg width="180" height="115" fill="none" xmlns="http://www.w3.org/2000/svg">
    <path d="M58.643 44.378a5.057 5.057 0 0 0-2.737-.42c-3.85.464-6.765-3.372-5.132-6.76.398-.82.536-1.737.407-2.635-.525-3.724 3.413-6.485 6.945-4.868a5.057 5.057 0 0 0 2.738.421c3.849-.464 6.764 3.372 5.131 6.76a4.54 4.54 0 0 0-.407 2.634c.526 3.725-3.413 6.486-6.945 4.868z" fill="#03EAEA"/>
    <path d="M143.57 18.293c-3.802-2.381-6.759-5.189-8.575-8.293-1.819 3.107-4.777 5.912-8.579 8.293 3.802 2.38 6.76 5.186 8.579 8.29 1.816-3.096 4.773-5.9 8.575-8.29zM146 28.154H79.95v23.28l-42.452-23.28V96.2h66.051V72.917L146 96.2V28.154z" fill="#000"/>
    <path d="M93.403 80.307a8.708 8.708 0 0 0-3.852-3.062 8.703 8.703 0 0 0 3.061-3.852 8.707 8.707 0 0 0 3.853 3.062 8.807 8.807 0 0 0-3.062 3.852z" fill="#fff"/>
</svg>
