<svg width="70" height="70" viewBox="0 0 70 70" fill="none" xmlns="http://www.w3.org/2000/svg">
<path d="M34.995 53.0005C37.2078 53.0005 39.0017 51.1977 39.0017 48.9739C39.0017 46.75 37.2078 44.9473 34.995 44.9473C32.7821 44.9473 30.9883 46.75 30.9883 48.9739C30.9883 51.1977 32.7821 53.0005 34.995 53.0005Z" fill="black"/>
<path d="M45.7913 42.9984H24.4374C17.5699 42.9984 12 37.4008 12 30.4992C12 23.5976 17.5699 18 24.4374 18H45.7913C52.6588 18 58.2287 23.5976 58.2287 30.4992C58.2287 37.4008 52.6588 42.9984 45.7913 42.9984Z" fill="#0097EE"/>
<path d="M23.9141 32.9319C23.9141 30.2475 26.0844 28.0664 28.7555 28.0664C31.4266 28.0664 33.5969 30.2475 33.5969 32.9319" fill="#00C4FF"/>
<path d="M30.2734 32.9319C30.2734 30.2475 32.4437 28.0664 35.1149 28.0664C37.786 28.0664 39.9563 30.2475 39.9563 32.9319" fill="white"/>
<path d="M36.6328 32.9319C36.6328 30.2475 38.8031 28.0664 41.4742 28.0664C44.1454 28.0664 46.3156 30.2475 46.3156 32.9319" fill="#0078DB"/>
</svg>
