<svg width="130" height="130" fill="none" xmlns="http://www.w3.org/2000/svg">
    <path d="M64.5 107.074c4.142 0 7.5-3.374 7.5-7.537S68.642 92 64.5 92c-4.142 0-7.5 3.374-7.5 7.537s3.358 7.537 7.5 7.537z" fill="#000"/>
    <path d="M92.715 84.89h-55.43C19.458 84.89 5 70.36 5 52.446S19.458 20 37.285 20h55.43C110.542 20 125 34.53 125 52.445c0 17.916-14.458 32.446-32.285 32.446z" fill="#0097EE"/>
    <path d="M35.925 58.759c0-6.968 5.634-12.63 12.568-12.63 6.933 0 12.567 5.662 12.567 12.63" fill="#00C4FF"/>
    <path d="M52.433 58.759c0-6.968 5.633-12.63 12.567-12.63s12.567 5.662 12.567 12.63" fill="#fff"/>
    <path d="M68.939 58.759c0-6.968 5.634-12.63 12.567-12.63 6.934 0 12.568 5.662 12.568 12.63" fill="#0078DB"/>
</svg>
