<svg width="130" height="130" fill="none" xmlns="http://www.w3.org/2000/svg">
    <path d="M65.361 37.522c6.244 0 11.305-5.042 11.305-11.261C76.666 20.04 71.606 15 65.362 15c-6.243 0-11.305 5.042-11.305 11.26 0 6.22 5.062 11.262 11.305 11.262z" fill="#0078DB"/>
    <path d="M65.361 60.045c6.244 0 11.305-5.042 11.305-11.26 0-6.22-5.061-11.262-11.305-11.262-6.243 0-11.305 5.042-11.305 11.261 0 6.22 5.062 11.261 11.305 11.261z" fill="#00C4FF"/>
    <path d="M65.361 82.565c6.244 0 11.305-5.042 11.305-11.261 0-6.22-5.061-11.261-11.305-11.261-6.243 0-11.305 5.042-11.305 11.26 0 6.22 5.062 11.262 11.305 11.262z" fill="#0097EE"/>
    <path d="M65.361 115C35.937 115 12 91.156 12 61.848h12.76c0 22.293 18.22 40.442 40.601 40.442s40.602-18.15 40.602-40.442h12.76c0 29.308-23.938 53.152-53.362 53.152z" fill="#000"/>
</svg>
