<svg width="70" height="70" viewBox="0 0 70 70" fill="none" xmlns="http://www.w3.org/2000/svg">
<path d="M57.4998 25.7905C57.5389 18.3585 51.552 12.3034 44.1296 12.2642C40.6618 12.2464 37.496 13.545 35.1013 15.6903C32.7278 13.5201 29.5762 12.1859 26.1084 12.1682C18.6861 12.129 12.6388 18.1237 12.5997 25.5557C12.5784 29.1774 13.996 32.4718 16.3091 34.9017C13.9676 37.3102 12.518 40.5868 12.5002 44.2086C12.4611 51.6405 18.448 57.6957 25.8704 57.7348C29.3382 57.7526 32.504 56.4541 34.8987 54.3088C37.2722 56.479 40.4238 57.8131 43.8916 57.8309C51.3139 57.87 57.3612 51.8753 57.4003 44.4434C57.4181 40.8216 56.004 37.5272 53.6909 35.0938C56.0288 32.6924 57.4785 29.4158 57.4998 25.7905Z" fill="#00C4FF"/>
<path d="M34.8141 49.4904C27.8003 49.4904 22.0977 43.7768 22.0977 36.7575H25.1391C25.1391 42.1011 29.4809 46.445 34.8141 46.445C40.1472 46.445 44.4926 42.0975 44.4926 36.7539H47.5305C47.5305 43.7768 41.8278 49.4904 34.8141 49.4904Z" fill="black"/>
<path d="M36.868 30.3162L32.8281 30.2949L32.7681 41.6973L36.8079 41.7186L36.868 30.3162Z" fill="#FBFBFB"/>
<path d="M34.888 21.4004C35.691 22.9409 36.9204 24.2216 38.4269 25.0861C36.8884 25.8902 35.6093 27.1211 34.7459 28.6296C33.9429 27.0891 32.7135 25.8083 31.207 24.9438C32.7491 24.1398 34.0246 22.9088 34.888 21.4004Z" fill="black"/>
</svg>
