<svg width="70" height="70" viewBox="0 0 70 70" fill="none" xmlns="http://www.w3.org/2000/svg">
<path d="M27.3203 46C33.1193 46 37.8203 41.299 37.8203 35.5C37.8203 29.701 33.1193 25 27.3203 25V46Z" fill="#00BAF4"/>
<path d="M37.8203 53C47.4853 53 55.3203 45.165 55.3203 35.5C55.3203 25.835 47.4853 18 37.8203 18V53Z" fill="#0078DB"/>
<g clip-path="url(#clip0)">
<path d="M21.1587 28.6406C22.5805 31.2393 24.7187 33.3774 27.3173 34.7993C24.7187 36.2211 22.5805 38.3593 21.1587 40.9579C19.7368 38.3593 17.5986 36.2211 15 34.7993C17.5986 33.3774 19.7368 31.2393 21.1587 28.6406Z" fill="black"/>
</g>
<defs>
<clipPath id="clip0">
<rect width="12.32" height="12.32" fill="white" transform="translate(15 28.6406)"/>
</clipPath>
</defs>
</svg>
