<svg width="130" height="130" fill="none" xmlns="http://www.w3.org/2000/svg">
    <path d="M43.61 93.39c15.821 0 28.646-12.826 28.646-28.647 0-15.82-12.825-28.645-28.645-28.645v57.291z" fill="#00BAF4"/>
    <path d="M72.256 112.486c26.368 0 47.743-21.375 47.743-47.743C119.999 38.375 98.624 17 72.256 17v95.486z" fill="#0078DB"/>
    <g clip-path="url(#a)">
        <path d="M26.802 46.027A42.301 42.301 0 0 0 43.604 62.83a42.303 42.303 0 0 0-16.802 16.802A42.303 42.303 0 0 0 10 62.83a42.302 42.302 0 0 0 16.802-16.802z" fill="#000"/>
    </g>
    <defs>
        <clipPath id="a">
            <path fill="#fff" transform="translate(10 46.027)" d="M0 0h33.611v33.611H0z"/>
        </clipPath>
    </defs>
</svg>
