<svg width="70" height="70" viewBox="0 0 70 70" fill="none" xmlns="http://www.w3.org/2000/svg">
<path d="M15.8867 49.0438C15.8867 38.8012 24.2238 30.4941 34.5034 30.4941C44.7831 30.4941 53.1202 38.8012 53.1202 49.0438" fill="black"/>
<path d="M7 49.0438H31.6735C26.1898 39.5766 12.4837 39.5766 7 49.0438Z" fill="#0097EE"/>
<path d="M22.668 49.0438H47.3415C41.8638 39.5766 28.1516 39.5766 22.668 49.0438Z" fill="#0078DB"/>
<path d="M37.3281 49.0438H62.0016C56.518 39.5766 42.8118 39.5766 37.3281 49.0438Z" fill="#0097EE"/>
<path d="M34.5008 25.7464C36.0934 25.7464 37.3844 24.4601 37.3844 22.8732C37.3844 21.2864 36.0934 20 34.5008 20C32.9082 20 31.6172 21.2864 31.6172 22.8732C31.6172 24.4601 32.9082 25.7464 34.5008 25.7464Z" fill="#0078DB"/>
</svg>
