<svg width="170" height="170" fill="none" xmlns="http://www.w3.org/2000/svg">
    <g clip-path="url(#a)">
        <path d="M27.466 130.312c0-31.659 25.77-57.335 57.543-57.335 31.774 0 57.543 25.676 57.543 57.335" fill="#000"/>
        <path d="M0 130.314h76.264c-16.95-29.262-59.314-29.262-76.264 0z" fill="#0097EE"/>
        <path d="M48.425 130.314h76.264c-16.931-29.262-59.314-29.262-76.264 0z" fill="#0078DB"/>
        <path d="M93.736 130.314H170c-16.95-29.262-59.315-29.262-76.264 0z" fill="#0097EE"/>
        <path d="M85.01 58.3c4.922 0 8.912-3.975 8.912-8.88 0-4.905-3.99-8.88-8.912-8.88-4.923 0-8.914 3.975-8.914 8.88 0 4.905 3.99 8.88 8.913 8.88z" fill="#0078DB"/>
    </g>
    <defs>
        <clipPath id="a">
            <path fill="#fff" d="M0 0h170v170H0z"/>
        </clipPath>
    </defs>
</svg>
