<svg width="130" height="130" fill="none" xmlns="http://www.w3.org/2000/svg">
    <g clip-path="url(#a)" fill="#00C4FF">
        <path d="M5 52.367a59.969 59.969 0 0 1 42.495 17.677 60.48 60.48 0 0 1 17.602 42.674 59.968 59.968 0 0 1-42.495-17.676A60.48 60.48 0 0 1 5 52.367z"/>
        <path d="M64.93 112.719a60.48 60.48 0 0 1 17.603-42.675 59.969 59.969 0 0 1 42.495-17.676 60.48 60.48 0 0 1-17.602 42.674 59.97 59.97 0 0 1-42.495 17.677z"/>
    </g>
    <g clip-path="url(#b)">
        <path d="M65.351 16.994 49.204 33.14l16.147 16.147L81.498 33.14 65.351 16.994z" fill="#0078DB"/>
    </g>
    <defs>
        <clipPath id="a">
            <path fill="#fff" transform="translate(5 52.367)" d="M0 0h120v60.351H0z"/>
        </clipPath>
        <clipPath id="b">
            <path fill="#fff" transform="translate(49.21 17)" d="M0 0h32.281v32.281H0z"/>
        </clipPath>
    </defs>
</svg>
