<svg width="70" height="70" viewBox="0 0 70 70" fill="none" xmlns="http://www.w3.org/2000/svg">
<path d="M35.0197 52.5006C36.6917 52.5006 38.0472 51.1442 38.0472 49.471C38.0472 47.7978 36.6917 46.4414 35.0197 46.4414C33.3476 46.4414 31.9922 47.7978 31.9922 49.471C31.9922 51.1442 33.3476 52.5006 35.0197 52.5006Z" fill="black"/>
<path d="M46.4076 43.5829H24.0324C16.8363 43.5829 11 37.7425 11 30.5415C11 23.3404 16.8363 17.5 24.0324 17.5H46.4076C53.6037 17.5 59.44 23.3404 59.44 30.5415C59.44 37.7425 53.6037 43.5829 46.4076 43.5829Z" fill="#0097EE"/>
<path d="M30.1445 33.0785C30.1445 30.2776 32.4186 28.002 35.2175 28.002C38.0164 28.002 40.2905 30.2776 40.2905 33.0785" fill="white"/>
</svg>
