<svg width="70" height="70" viewBox="0 0 70 70" fill="none" xmlns="http://www.w3.org/2000/svg">
<path d="M41.3238 22.5586C39.3127 22.5586 38.2279 21.8938 37.3524 21.3556C36.5974 20.8934 36.0074 20.5326 34.7132 20.5326C33.4191 20.5326 32.8227 20.8998 32.0741 21.3556C31.1986 21.8875 30.1138 22.5586 28.1027 22.5586C26.0916 22.5586 25.0068 21.8938 24.1313 21.3556C23.3827 20.8998 22.7864 20.5326 21.4922 20.5326V18C23.5033 18 24.5881 18.6648 25.4636 19.203C26.2185 19.6652 26.8085 20.026 28.1027 20.026C29.3969 20.026 29.9933 19.6588 30.7419 19.203C31.6173 18.6711 32.7022 18 34.7132 18C36.7243 18 37.8092 18.6648 38.6846 19.203C39.4396 19.6652 40.0296 20.026 41.3238 20.026C42.618 20.026 43.2143 19.6588 43.9629 19.203C44.8384 18.6711 45.9232 18 47.9343 18V20.5326C46.6401 20.5326 46.0438 20.8998 45.2952 21.3556C44.426 21.8938 43.3349 22.5586 41.3238 22.5586Z" fill="black"/>
<path d="M35.1346 52.9993C27.325 52.9993 21 46.6869 21 38.893V24.793H49.2629V38.893C49.2629 46.6869 42.9378 52.9993 35.1346 52.9993Z" fill="#0097EE"/>
<path d="M38.9841 38.0647L49.2234 24.8574H21.0938L31.3331 38.0647C33.268 40.5593 37.0491 40.5593 38.9841 38.0647Z" fill="#0078DB"/>
<path d="M38.9815 38.5084C37.3765 39.3884 36.0633 40.7117 35.1941 42.3199C34.3123 40.718 32.9864 39.4074 31.375 38.54C32.9801 37.6599 34.2933 36.3367 35.1624 34.7285C36.0506 36.324 37.3702 37.6346 38.9815 38.5084Z" fill="black"/>
</svg>
