<svg width="70" height="70" viewBox="0 0 70 70" fill="none" xmlns="http://www.w3.org/2000/svg">
<path d="M34.4973 23.4963C37.13 23.4963 39.2642 21.3705 39.2642 18.7482C39.2642 16.1258 37.13 14 34.4973 14C31.8647 14 29.7305 16.1258 29.7305 18.7482C29.7305 21.3705 31.8647 23.4963 34.4973 23.4963Z" fill="#0D0D0D"/>
<path d="M34.4973 32.9924C37.13 32.9924 39.2642 30.8666 39.2642 28.2443C39.2642 25.6219 37.13 23.4961 34.4973 23.4961C31.8647 23.4961 29.7305 25.6219 29.7305 28.2443C29.7305 30.8666 31.8647 32.9924 34.4973 32.9924Z" fill="#00C4FF"/>
<path d="M34.4973 42.4905C37.13 42.4905 39.2642 40.3646 39.2642 37.7423C39.2642 35.12 37.13 32.9941 34.4973 32.9941C31.8647 32.9941 29.7305 35.12 29.7305 37.7423C29.7305 40.3646 31.8647 42.4905 34.4973 42.4905Z" fill="#0097EE"/>
<path d="M34.5 56.1656C22.0933 56.1656 12 46.112 12 33.7539H17.3802C17.3802 43.1538 25.0631 50.8065 34.5 50.8065C43.9369 50.8065 51.6198 43.1538 51.6198 33.7539H57C57 46.112 46.9067 56.1656 34.5 56.1656Z" fill="#0078DB"/>
</svg>
