<svg width="70" height="70" viewBox="0 0 70 70" fill="none" xmlns="http://www.w3.org/2000/svg">
<path d="M50.4942 19.4312C50.4942 14.2254 46.2727 10 41.0638 10C38.6304 10 36.4147 10.9182 34.7432 12.4356C33.0717 10.9182 30.856 10 28.4226 10C23.2215 10 19 14.2254 19 19.4312C19 21.968 20.0029 24.2713 21.6355 25.9677C20.0029 27.6641 19 29.9674 19 32.5042C19 37.7178 23.2215 41.9354 28.4226 41.9354C30.856 41.9354 33.0717 41.0172 34.7432 39.4998C36.4147 41.0094 38.6304 41.9354 41.0638 41.9354C46.2727 41.9354 50.4865 37.71 50.4865 32.5042C50.4865 29.9674 49.4836 27.6641 47.8509 25.9677C49.4836 24.2791 50.4942 21.9758 50.4942 19.4312Z" fill="#36C7F5"/>
<path d="M34.7475 45.3249L30.707 49.3691L34.7475 53.4133L38.7881 49.3691L34.7475 45.3249Z" fill="#0078DB"/>
<path d="M44.0113 56.8008H25.5781V59.999H44.0113V56.8008Z" fill="black"/>
</svg>
