<svg width="130" height="130" fill="none" xmlns="http://www.w3.org/2000/svg">
    <path d="M99.034 30.673C99.034 19.262 89.781 10 78.364 10a20.527 20.527 0 0 0-13.855 5.339A20.527 20.527 0 0 0 50.654 10C39.254 10 30 19.262 30 30.673c0 5.56 2.198 10.61 5.777 14.328A20.594 20.594 0 0 0 30 59.329C30 70.757 39.253 80 50.654 80c5.334 0 10.19-2.012 13.855-5.338A20.609 20.609 0 0 0 78.363 80c11.418 0 20.654-9.261 20.654-20.672 0-5.561-2.198-10.61-5.777-14.328a20.548 20.548 0 0 0 5.794-14.328z" fill="#36C7F5"/>
    <path d="m64.515 87.502-8.857 8.865 8.857 8.865 8.857-8.865-8.857-8.865z" fill="#0078DB"/>
    <path d="M84.823 113.008H44.418v7.01h40.405v-7.01z" fill="#000"/>
</svg>
