<svg xmlns="http://www.w3.org/2000/svg" width="55" height="55" fill="none" viewBox="0 0 55 55">
    <path fill="#C6C6C6" d="M34.923 14.38v.548c-3.583-2.006-7.808-3.1-12.309-2.736-10.472.82-18.922 9.302-19.565 19.7C2.222 44.293 12.05 54.6 24.359 54.6c11.482 0 20.76-8.938 21.311-20.155V14.38C45.67 11.462 43.282 9 40.25 9c-2.939 0-5.327 2.371-5.327 5.38z"/>
    <path fill="#fff" d="M40.434 13.195l.643 1.095c0 .091.092.091.092.091l1.102.639c.184.09.184.364 0 .456l-1.102.638c-.092 0-.092.091-.092.091l-.643 1.095c-.092.182-.367.182-.46 0l-.642-1.004c0-.09-.092-.09-.092-.09l-1.102-.64c-.184-.09-.184-.364 0-.455l1.102-.639c.092 0 .092-.09.092-.09l.643-1.095c.092-.274.367-.274.46-.092z"/>
    <path fill="#5E5E5E" d="M16.552 27.056c1.167 0 2.113-.939 2.113-2.097 0-1.159-.946-2.098-2.113-2.098s-2.112.94-2.112 2.098.945 2.098 2.112 2.098zM30.88 26.601c1.167 0 2.113-.939 2.113-2.097 0-1.159-.946-2.098-2.113-2.098-1.166 0-2.112.94-2.112 2.098s.945 2.097 2.112 2.097zM27.574 29.701c.367 0 .551.274.551.639-.367 1.824-2.113 3.192-4.317 3.192-2.205 0-3.95-1.368-4.317-3.192-.092-.274.183-.639.55-.639h7.533z"/>
</svg>
