<svg xmlns="http://www.w3.org/2000/svg" width="130" height="86" fill="none" viewBox="0 0 130 86">
    <g clip-path="url(#clip0)">
        <path fill="url(#paint0_linear)" d="M73.16 51.22v.474c-3.105-1.739-6.767-2.687-10.668-2.37-9.075.71-16.32 8.062-16.956 17.073-.717 10.75 7.801 19.682 18.469 19.682 9.95 0 17.991-7.747 18.469-17.469V51.22c0-2.53-2.07-4.663-4.697-4.663-2.468 0-4.617 2.134-4.617 4.663z"/>
        <path fill="#fff" d="M78.016 50.272l.557.948c0 .08.08.08.08.08l.955.553c.159.078.159.316 0 .395l-.956.553c-.08 0-.08.08-.08.08l-.556.948c-.08.158-.319.158-.398 0l-.558-.949c0-.079-.08-.079-.08-.079l-.955-.553c-.159-.08-.159-.316 0-.395l.956-.554c.08 0 .08-.079.08-.079l.557-.948c.08-.237.318-.237.398 0z"/>
        <path fill="#007493" d="M57.238 62.206c1.011 0 1.831-.814 1.831-1.818s-.82-1.818-1.83-1.818c-1.012 0-1.832.814-1.832 1.818s.82 1.818 1.831 1.818zM69.657 61.812c1.011 0 1.83-.814 1.83-1.818s-.819-1.818-1.83-1.818c-1.011 0-1.831.814-1.831 1.818s.82 1.818 1.83 1.818z"/>
        <path fill="#0093B5" d="M66.87 64.578c.319 0 .478.237.478.553-.318 1.581-1.83 2.767-3.741 2.767s-3.423-1.186-3.742-2.767c-.08-.237.16-.553.478-.553h6.528z"/>
        <path fill="#43E7EF" d="M118.059 60.47h-.08c-1.672 0-3.025-1.265-3.105-2.925-1.592-25.927-23.325-46.557-49.834-46.557-26.51 0-48.243 20.63-49.755 46.557-.08 1.66-1.433 2.924-3.105 2.924h-.08c-1.751 0-3.264-1.502-3.104-3.24 1.671-29.247 26.19-52.565 56.123-52.565 29.933 0 54.452 23.318 56.124 52.564 0 1.74-1.433 3.241-3.184 3.241z"/>
        <path fill="#07D5E0" d="M111.69 60.469h-.08c-1.671 0-3.025-1.265-3.104-2.925-1.513-22.448-20.38-40.233-43.387-40.233S23.245 35.096 21.653 57.465c-.08 1.66-1.433 2.925-3.104 2.925h-.08c-1.831 0-3.264-1.502-3.105-3.241 1.672-25.768 23.325-46.24 49.755-46.24 26.35 0 48.004 20.472 49.755 46.24 0 1.818-1.433 3.32-3.184 3.32z"/>
        <path fill="#00BFD3" d="M105.242 60.469h-.08c-1.592 0-3.025-1.265-3.105-2.846-1.433-18.97-17.513-33.989-37.017-33.989s-35.506 15.019-37.018 33.99c-.16 1.58-1.513 2.845-3.105 2.845h-.08c-1.83 0-3.263-1.581-3.104-3.4 1.751-22.21 20.46-39.758 43.307-39.758s41.635 17.547 43.306 39.759c.16 1.818-1.273 3.399-3.104 3.399z"/>
        <path fill="#04CDD7" d="M13.215 7.035l2.229.87c.08 0 .16.078.318 0l2.389-.396c.398-.08.716.316.557.711l-.876 2.214c0 .079-.08.158 0 .316l.398 2.371c.08.395-.318.711-.716.553l-2.23-.87c-.079 0-.158-.078-.318 0l-2.388.396c-.398.08-.716-.316-.557-.711l.876-2.214c0-.079.08-.158 0-.316l-.399-2.371c-.08-.395.319-.632.717-.553zM115.591 12.41l.398 2.371c0 .08.08.158.159.237l1.592 1.74c.239.316.08.79-.318.869l-2.388.395c-.08 0-.159.08-.239.158l-1.751 1.581c-.319.237-.797.08-.876-.316l-.398-2.371c0-.08-.08-.159-.159-.238l-1.593-1.738c-.238-.317-.079-.79.319-.87l2.388-.395c.08 0 .159-.08.239-.158l1.751-1.581c.319-.237.796-.08.876.316zM12.578 19.84l1.115.475h.159l1.194-.237c.16 0 .319.158.319.316l-.478 1.107v.158l.239 1.186c0 .158-.16.316-.319.316l-1.114-.475h-.16l-1.273.238c-.16 0-.319-.159-.319-.317l.478-1.106v-.158l-.239-1.186c0-.237.24-.395.398-.316zM40.52 0l1.433.553h.16l1.512-.237c.239-.079.478.237.398.474l-.557 1.423v.158l.159 1.581c.08.237-.239.474-.478.395l-1.433-.553h-.159l-1.512.158c-.24.08-.478-.237-.398-.474l.557-1.423v-.158L39.963.395c0-.237.318-.474.557-.395z"/>
        <path fill="#A6EEF4" d="M28.5 51.299c-1.593 0-3.105.474-4.379 1.264-.398.238-.955.238-1.433 0-1.273-.79-2.786-1.264-4.378-1.264s-3.025.474-4.299 1.185c-.398.238-.876.238-1.274 0-1.194-.632-2.547-.948-3.9-.948C3.98 51.536 0 55.804 0 61.021s3.98 9.406 8.836 9.406c1.593 0 3.026-.474 4.3-1.185.397-.237.875-.237 1.273 0 1.194.632 2.547.948 3.9.948 1.593 0 3.106-.474 4.38-1.264.397-.237.955-.237 1.432 0 1.274.79 2.787 1.264 4.379 1.264 4.856 0 8.836-4.189 8.836-9.406 0-5.296-3.98-9.485-8.836-9.485zM121.164 51.299c-1.592 0-3.105.474-4.379 1.264-.398.238-.955.238-1.433 0-1.273-.79-2.786-1.264-4.378-1.264s-3.025.474-4.299 1.185c-.398.238-.876.238-1.274 0-1.194-.632-2.547-.948-3.9-.948-4.857 0-8.837 4.19-8.837 9.406 0 5.217 3.98 9.407 8.837 9.407 1.592 0 3.025-.475 4.298-1.186.398-.237.876-.237 1.274 0 1.194.632 2.548.948 3.901.948 1.592 0 3.105-.474 4.378-1.264.398-.237.956-.237 1.433 0 1.274.79 2.787 1.264 4.379 1.264 4.856 0 8.836-4.189 8.836-9.406 0-5.217-3.98-9.406-8.836-9.406z"/>
        <path fill="#04CDD7" d="M124.189 41.576l1.114.474h.159l1.194-.237c.16 0 .319.158.319.316l-.478 1.107v.158l.239 1.186c0 .158-.159.316-.318.316l-1.115-.474h-.159l-1.194.237c-.159 0-.319-.158-.319-.316l.478-1.107v-.158l-.239-1.186c-.079-.158.159-.316.319-.316z"/>
        <path fill="#00BFD3" d="M63.607 45.53c2.468 0 4.777.71 6.608 1.897.398.237.875 0 .875-.475v-7.825c0-.474-.636-.632-.955-.316l-.398.553c-1.512 1.976-4.697 0-5.732-2.213v-.08c-.159-.394-.796-.394-.955 0-1.035 2.214-4.22 4.111-5.732 2.214L57 38.811c-.319-.395-.956-.158-.956.316v7.825c0 .395.478.712.876.475 1.91-1.265 4.22-1.898 6.687-1.898z"/>
        <path fill="#fff" d="M63.767 40.865l.398.712s0 .079.08.079l.716.395c.08.079.08.237 0 .316l-.796.316s-.08 0-.08.08l-.318.71c-.08.08-.24.08-.319 0l-.398-.71s0-.08-.08-.08l-.716-.395c-.08-.079-.08-.237 0-.316l.717-.395s.08 0 .08-.08l.397-.71c.08-.08.239-.08.319.078z"/>
    </g>
    <defs>
        <linearGradient id="paint0_linear" x1="64.019" x2="64.019" y1="86.035" y2="46.578" gradientUnits="userSpaceOnUse">
            <stop offset="0" stop-color="#36C8F5"/>
            <stop offset="1" stop-color="#13E2DD"/>
        </linearGradient>
        <clipPath id="clip0">
            <path fill="#fff" d="M0 0H130V86H0z"/>
        </clipPath>
    </defs>
</svg>
