<svg xmlns="http://www.w3.org/2000/svg" width="24" height="24" fill="none" viewBox="0 0 24 24">
    <path fill="#3D3D3D" fill-rule="evenodd" d="M8.173 2.761C9.387 2.26 10.687 2 12 2c2.652 0 5.196 1.054 7.071 2.929 1.875 1.875 2.93 4.419 2.93 7.071s-1.055 5.196-2.93 7.071C17.196 20.946 14.652 22 12.001 22H3c-.199.008-.395-.042-.564-.146-.17-.103-.304-.254-.387-.434-.076-.182-.097-.383-.06-.577.037-.194.131-.372.27-.513l2-2C2.79 16.549 1.991 14.31 2 12 2 9.348 3.054 6.804 4.93 4.929 5.858 4 6.96 3.264 8.173 2.76z" clip-rule="evenodd"/>
</svg>
