<svg xmlns="http://www.w3.org/2000/svg" width="24" height="24" fill="none" viewBox="0 0 24 24">
    <path stroke="#A5A5A5" stroke-linecap="round" stroke-linejoin="round" stroke-width="2" d="M11 4H4c-.53 0-1.04.21-1.414.586C2.21 4.96 2 5.47 2 6v14c0 .53.21 1.04.586 1.414C2.96 21.79 3.47 22 4 22h14c.53 0 1.04-.21 1.414-.586C19.79 21.04 20 20.53 20 20v-7"/>
    <path stroke="#A5A5A5" stroke-linecap="round" stroke-linejoin="round" stroke-width="2" d="M18.5 2.5c.398-.398.937-.621 1.5-.621s1.102.223 1.5.621c.398.398.621.938.621 1.5 0 .563-.223 1.102-.621 1.5L12 15l-4 1 1-4 9.5-9.5z"/>
</svg>
