<svg xmlns="http://www.w3.org/2000/svg" width="24" height="24" fill="none" viewBox="0 0 24 24">
    <path fill="#3D3D3D" stroke="#3D3D3D" stroke-linecap="round" stroke-linejoin="round" stroke-width="2" d="M20.84 4.61c-.51-.511-1.117-.916-1.785-1.193-.667-.277-1.382-.419-2.105-.419-.722 0-1.438.142-2.105.419-.668.277-1.274.682-1.785 1.193L12 5.67l-1.06-1.06C9.908 3.578 8.51 2.999 7.05 2.999c-1.459 0-2.858.58-3.89 1.61C2.128 5.643 1.55 7.042 1.55 8.5c0 1.46.58 2.86 1.611 3.89l1.06 1.06L12 21.23l7.78-7.78 1.06-1.06c.511-.51.916-1.116 1.193-1.784.277-.667.419-1.383.419-2.105 0-.723-.142-1.438-.419-2.105-.277-.668-.682-1.274-1.193-1.785v0z"/>
</svg>
