<svg width="516" height="56" fill="none" xmlns="http://www.w3.org/2000/svg">
    <g clip-path="url(#a)" fill="#0D0D0D">
        <path d="M163.319 5.075A15.507 15.507 0 0 1 158.079 0a15.507 15.507 0 0 1-5.24 5.075 15.506 15.506 0 0 1 5.24 5.074 15.506 15.506 0 0 1 5.24-5.074zM134.619 28.728v26.56h-9.08V13.492h8.475l19.584 25.741v-25.74h9.128v41.795h-7.812l-20.295-26.56zM262.896 45.257a21.344 21.344 0 0 1-7.966 7.861 23.945 23.945 0 0 1-22.773 0 20.882 20.882 0 0 1-7.907-7.79 21.196 21.196 0 0 1-2.868-10.837v-.119A21.34 21.34 0 0 1 232.24 15.65a23.968 23.968 0 0 1 22.785 0 21.142 21.142 0 0 1 10.835 18.592v.119a21.11 21.11 0 0 1-2.964 10.896zm-8.357-17.465a12.536 12.536 0 0 0-4.505-4.743 12.365 12.365 0 0 0-14.223.869 12.37 12.37 0 0 0-3.203 3.874 13.544 13.544 0 0 0-1.612 6.569v.118c-.022 2.3.541 4.569 1.636 6.593a12.559 12.559 0 0 0 4.504 4.742 12.942 12.942 0 0 0 13.04 0 12.347 12.347 0 0 0 4.446-4.742 13.723 13.723 0 0 0 1.612-6.57v-.118a13.513 13.513 0 0 0-1.695-6.592zM294.31 56.013a23.139 23.139 0 0 1-11.404-2.775 19.783 19.783 0 0 1-7.788-7.671 22.058 22.058 0 0 1-2.786-11.051v-.119a21.489 21.489 0 0 1 2.845-10.872 20.958 20.958 0 0 1 7.848-7.85 21.999 21.999 0 0 1 11.226-2.893 26.369 26.369 0 0 1 9.187 1.4 24.39 24.39 0 0 1 7.219 4.327l-5.784 6.996a19.763 19.763 0 0 0-5.074-3.225 15.268 15.268 0 0 0-5.856-1.02 10.937 10.937 0 0 0-6.022 1.767 12.657 12.657 0 0 0-4.363 4.742 13.583 13.583 0 0 0-1.612 6.51v.118a14.431 14.431 0 0 0 1.612 6.806 11.735 11.735 0 0 0 4.505 4.743 12.648 12.648 0 0 0 6.544 1.707c3.079.111 6.112-.77 8.653-2.513V39.21h-9.258v-7.944h18.09V49.42a26.86 26.86 0 0 1-17.782 6.593zM431.241 38.51h-16.952v16.778h-9.187V13.492h9.187v16.6h16.952v-16.6h9.199v41.796h-9.199V38.51zM21.658 55.775A21.69 21.69 0 0 1 1.616 42.38a21.702 21.702 0 0 1 4.703-23.646 21.693 21.693 0 0 1 37.033 15.343 21.724 21.724 0 0 1-6.361 15.336 21.715 21.715 0 0 1-15.333 6.362zm0-34.966A13.263 13.263 0 0 0 9.403 29a13.27 13.27 0 0 0 9.667 18.09A13.263 13.263 0 0 0 31.035 24.7a13.276 13.276 0 0 0-9.377-3.89zM74.303 20.238a13.17 13.17 0 0 0-5.547-5.11 18.798 18.798 0 0 0-8.512-1.814h-7.978v8.24h7.113a8.297 8.297 0 0 1 5.488 1.637 5.764 5.764 0 0 1 1.968 4.742v.119a5.834 5.834 0 0 1-1.968 4.53 7.573 7.573 0 0 1-5.31 1.79h-7.22v8.24h6.982a21.335 21.335 0 0 0 8.607-1.672 13.81 13.81 0 0 0 6.057-5.015 14.04 14.04 0 0 0 2.24-8.003v-.119a14.526 14.526 0 0 0-1.92-7.565zM116.624 13.492H85.103v8.181h31.521v-8.18zM116.624 30.117H85.103v8.181h31.521v-8.18zM116.624 47.215H85.103v8.181h31.521v-8.181zM481.077 13.492h-31.521v8.181h31.521v-8.18zM481.077 30.117h-31.521v8.181h31.521v-8.18zM481.077 47.215h-31.521v8.181h31.521v-8.181zM352.527 13.492h-31.521v8.181h31.521v-8.18zM352.527 30.117h-31.521v8.181h31.521v-8.18zM352.527 47.215h-31.521v8.181h31.521v-8.181zM515.988 55.288l-9.958-14.56a13.68 13.68 0 0 0 5.726-4.85 14.051 14.051 0 0 0 2.241-8.003v-.119a14.529 14.529 0 0 0-1.945-7.517 13.17 13.17 0 0 0-5.547-5.11 18.73 18.73 0 0 0-8.512-1.815h-7.966v8.24h7.113a8.38 8.38 0 0 1 5.5 1.637 5.795 5.795 0 0 1 1.968 4.743v.118a5.935 5.935 0 0 1-1.968 4.53 7.609 7.609 0 0 1-5.323 1.79h-7.207v8.24h6.603l8.606 12.676h10.669zM202.047 55.147h-9.187V21.84h-12.708v-8.478h34.615v8.478h-12.72v33.306zM383.562 55.147h-9.187V21.84h-12.708v-8.478h34.591v8.478h-12.696v33.306z"/>
    </g>
    <defs>
        <clipPath id="a">
            <path fill="#fff" d="M0 0h516v56H0z"/>
        </clipPath>
    </defs>
</svg>
