<svg xmlns="http://www.w3.org/2000/svg" width="20" height="20" fill="none" viewBox="0 0 20 20">
    <path fill="#000" d="M15.833 9.168H4.166c-.22 0-.433.088-.589.244-.156.156-.244.368-.244.59 0 .22.088.432.244.589.156.156.368.244.59.244h11.666c.221 0 .433-.088.59-.244.155-.157.243-.369.243-.59 0-.22-.088-.433-.244-.589-.156-.156-.368-.244-.589-.244z"/>
    <path fill="#000" d="M10.833 15.832V4.165c0-.22-.088-.433-.244-.589-.156-.156-.368-.244-.59-.244-.22 0-.432.088-.589.244-.156.156-.244.368-.244.59v11.666c0 .221.088.433.244.59.157.156.369.243.59.243.22 0 .433-.087.589-.244.156-.156.244-.368.244-.589z"/>
</svg>
