<svg xmlns="http://www.w3.org/2000/svg" width="38" height="38" fill="none" viewBox="0 0 38 38">
    <path fill="#A5A5A5" d="M30.083 17.418H7.917c-.42 0-.823.167-1.12.464-.297.297-.464.7-.464 1.12 0 .42.167.822.464 1.119.297.297.7.464 1.12.464h22.166c.42 0 .823-.167 1.12-.464.297-.297.464-.7.464-1.12 0-.42-.167-.822-.464-1.12-.297-.296-.7-.463-1.12-.463z"/>
    <path fill="#A5A5A5" d="M20.583 30.082V7.915c0-.42-.167-.822-.463-1.12-.297-.296-.7-.463-1.12-.463-.42 0-.823.167-1.12.464-.297.297-.463.7-.463 1.12v22.166c0 .42.166.823.463 1.12.297.297.7.463 1.12.463.42 0 .823-.166 1.12-.463.296-.297.463-.7.463-1.12z"/>
</svg>
