<svg width="20" height="20" viewBox="0 0 20 20" fill="none" xmlns="http://www.w3.org/2000/svg">
<path d="M17.3666 3.84124C16.941 3.41541 16.4356 3.07761 15.8794 2.84714C15.3232 2.61667 14.727 2.49805 14.1249 2.49805C13.5229 2.49805 12.9267 2.61667 12.3705 2.84714C11.8143 3.07761 11.3089 3.41541 10.8833 3.84124L9.99994 4.72457L9.1166 3.84124C8.25686 2.98149 7.0908 2.49849 5.87494 2.49849C4.65908 2.49849 3.49301 2.98149 2.63327 3.84124C1.77353 4.70098 1.29053 5.86704 1.29053 7.0829C1.29053 8.29876 1.77353 9.46483 2.63327 10.3246L3.5166 11.2079L9.99994 17.6912L16.4833 11.2079L17.3666 10.3246C17.7924 9.89894 18.1302 9.39358 18.3607 8.83736C18.5912 8.28115 18.7098 7.68497 18.7098 7.0829C18.7098 6.48083 18.5912 5.88465 18.3607 5.32844C18.1302 4.77222 17.7924 4.26686 17.3666 3.84124V3.84124Z" stroke="white" stroke-width="1.6" stroke-linecap="round" stroke-linejoin="round"/>
</svg>
