<svg xmlns="http://www.w3.org/2000/svg" width="24" height="24" fill="none" viewBox="0 0 24 24">
    <path fill="#C1C1C1" d="M13.412 12l6.3-6.29c.188-.188.294-.444.294-.71 0-.266-.106-.522-.294-.71-.188-.188-.444-.294-.71-.294-.266 0-.522.106-.71.294l-6.29 6.3-6.29-6.3c-.188-.188-.444-.294-.71-.294-.266 0-.522.106-.71.294-.188.188-.294.444-.294.71 0 .266.106.522.294.71l6.3 6.29-6.3 6.29c-.094.093-.168.204-.219.326-.05.122-.077.252-.077.384s.026.263.077.385c.05.122.125.232.219.325.093.094.203.168.325.22.122.05.253.076.385.076s.263-.026.384-.077c.122-.05.233-.125.326-.219l6.29-6.3 6.29 6.3c.093.094.203.168.325.22.122.05.253.076.385.076s.263-.026.385-.077c.121-.05.232-.125.325-.219.094-.093.168-.203.219-.325.05-.122.077-.253.077-.385s-.026-.262-.077-.384c-.051-.122-.125-.233-.22-.326l-6.3-6.29z"/>
</svg>
